# AST/ASF file generated using VICON BodyLanguage
# -----------------------------------------------
:version 1.10
:name VICON
:units
  mass 1.0
  length 0.45
  angle deg
:documentation
   .ast/.asf automatically generated from VICON data using
   VICON BodyBuilder and BodyLanguage model FoxedUp or BRILLIANT.MOD
:root
   order TX TY TZ RX RY RZ
   axis XYZ
   position 0 0 0  
   orientation 0 0 0 
:bonedata
  begin
     id 1 
     name lhipjoint
     direction 0.522423 -0.726805 0.445902 
     length 2.25074 
     axis 0 0 0  XYZ
  end
  begin
     id 2 
     name lfemur
     direction 0.34202 -0.939693 0  
     length 6.54609  
     axis 0 0 20  XYZ
    dof rx ry rz
    limits (-160.0 20.0)
           (-70.0 70.0)
           (-60.0 70.0)
  end
  begin
     id 3 
     name ltibia
     direction 0.34202 -0.939693 0   
     length 7.7528   
     axis 0 0 20   XYZ
    dof rx
    limits (-10.0 170.0)
  end
  begin
     id 4 
     name lfoot
     direction 0.143696 -0.394801 0.90746   
     length 1.73269   
     axis -90 7.62852e-016 20   XYZ
    dof rx rz
    limits (-45.0 90.0)
           (-70.0 20.0)
  end
  begin
     id 5 
     name ltoes
     direction 1.53633e-011 -4.21912e-011 1   
     length 0.858383   
     axis -90 7.62852e-016 20   XYZ
    dof rx
    limits (-90.0 20.0)
  end
  begin
     id 6 
     name rhipjoint
     direction -0.515943 -0.73016 0.447961   
     length 2.2404  
     axis 0 0 0  XYZ 
  end
  begin
     id 7 
     name rfemur
     direction -0.34202 -0.939693 0   
     length 6.84377   
     axis 0 0 -20   XYZ
    dof rx ry rz
    limits (-160.0 20.0)
           (-70.0 70.0)
           (-70.0 60.0)
  end
  begin
     id 8 
     name rtibia
     direction -0.34202 -0.939693 0   
     length 7.57596   
     axis 0 0 -20   XYZ
    dof rx
    limits (-10.0 170.0)
 end
 begin
     id 9 
     name rfoot
     direction -0.0999372 -0.274575 0.956358   
     length 1.78783  
     axis -90 -7.62852e-016 -20   XYZ
    dof rx rz
    limits (-45.0 90.0)
           (-20.0 70.0)
  end
  begin
     id 10 
     name rtoes
     direction -1.53535e-011 -4.21895e-011 1   
     length 0.898614   
     axis -90 -7.62852e-016 -20   XYZ
    dof rx
    limits (-90.0 20.0)
  end
  begin
     id 11 
     name lowerback
     direction -0.011775 0.996164 -0.0867116   
     length 1.91499   
     axis 0 0 0   XYZ
    dof rx ry rz
    limits (-20.0 45.0)
           (-30.0 30.0)
           (-30.0 30.0)
  end
  begin
     id 12 
     name upperback
     direction -0.00189771 0.999673 -0.0254833   
     length 1.92213   
     axis 0 0 0   XYZ
    dof rx ry rz
    limits (-20.0 45.0)
           (-30.0 30.0)
           (-30.0 30.0)
  end
  begin
     id 13 
     name thorax
     direction 0.00335995 0.999878 0.0152401   
     length 1.93138   
     axis 0 0 0   XYZ
    dof rx ry rz
    limits (-20.0 45.0)
           (-30.0 30.0)
           (-30.0 30.0)
  end
  begin
     id 14 
     name lowerneck
     direction 0.00233191 0.998509 0.0545404   
     length 1.59408   
     axis 0 0 0   XYZ
    dof rx ry rz
    limits (-20.0 45.0)
           (-30.0 30.0)
           (-30.0 30.0)
  end
  begin
     id 15 
     name upperneck
     direction 0.07881 0.9956 -0.0506934   
     length 1.59344   
     axis 0 0 0   XYZ
    dof rx ry rz
    limits (-20.0 45.0)
           (-30.0 30.0)
           (-30.0 30.0)
  end
  begin
     id 16
     name head
     direction 0.0261681 0.999378 -0.0236299  
     length 1.60935  
     axis 0 0 0   XYZ
    dof rx ry rz
    limits (-20.0 45.0)
           (-30.0 30.0)
           (-30.0 30.0)
  end
  begin
     id 17 
     name lclavicle
     direction 0.96643 0.252035 0.0499195  
     length 3.82153  
     axis 0 0 0   XYZ
    dof ry rz
    limits (-20.0 10.0)
           (0.0 20.0)
  end
  begin
     id 18 
     name lhumerus
     direction 1 -4.48967e-011 -2.01614e-018   
     length 4.87796   
     axis 180 -30 -90   XYZ
    dof rx ry rz
    limits (-60.0 90.0)
           (-90.0 90.0)
           (-90.0 90.0)
  end
  begin
     id 19
     name lradius
     direction 1 -4.48958e-011 3.1409e-027   
     length 3.23169   
     axis 180 -30 -90   XYZ
    dof rx
    limits (-10.0 170.0)
  end
  begin
     id 20
     name lwrist
     direction 1 -4.48924e-011 1.0365e-027   
     length 1.61584   
     axis -2.56395e-016 90 90   XYZ
    dof ry
    limits (-180.0 0.0)
 end
  begin
     id 21 
     name lhand
     direction 1 -4.49055e-011 2.09488e-027   
     length 0.731324   
     axis -1.32723e-015 90 90   XYZ
    dof rx rz
    limits (-90.0 90.0)
           (-45.0 45.0)
  end
  begin
     id 22 
     name lfingers
     direction 1 -4.48935e-011 4.14981e-027   
     length 0.589612   
     axis -2.6545e-015 90 90   XYZ
    dof rx
    limits (0.0 90.0)
  end
  begin
     id 23
     name lthumb
     direction 0.707107 -6.35097e-011 0.707107   
     length 0.846569   
     axis -90 45 5.05613e-014   XYZ
    dof rx rz
    limits (-45.0 45.0)
           (-45.0 45.0)
  end
  begin
     id 24 
     name rclavicle
     direction -0.979337 0.201016 0.0221522   
     length 3.73827  
     axis 0 0 0   XYZ 
    dof ry rz
    limits (-10.0 20.0)
           (-20.0 0.0)
  end
  begin
     id 25 
     name rhumerus
     direction -1 -4.48971e-011 1.65907e-027  
     length 4.9143   
     axis 180 30 90   XYZ
    dof rx ry rz
    limits (-90.0 60.0)
           (-90.0 90.0)
           (-90.0 90.0)
  end
  begin
     id 26 
     name rradius
     direction -1 -4.4894e-011 2.17871e-028   
     length 3.29093   
     axis 180 30 90   XYZ
    dof rx
    limits (-10.0 170.0)
  end
  begin
     id 27 
     name rwrist
     direction -1 -4.48971e-011 1.04038e-027   
     length 1.64546   
     axis -2.56395e-016 -90 -90   XYZ
    dof ry
    limits (-180.0 0.0)
  end
  begin
     id 28
     name rhand
     direction -1 -4.49017e-011 2.08843e-027   
     length 0.54512   
     axis -1.32723e-015 -90 -90   XYZ
    dof rx rz
    limits (-90.0 90.0)
           (-45.0 45.0)
  end
  begin
     id 29
     name rfingers
     direction -1 -4.48918e-011 4.1439e-027   
     length 0.43949   
     axis -2.6545e-015 -90 -90   XYZ
    dof rx
    limits (0.0 90.0)
  end
  begin
     id 30
     name rthumb
     direction -0.707107 -6.35065e-011 0.707107   
     length 0.631022   
     axis -90 -45 -5.05613e-014   XYZ
    dof rx rz
    limits (-45.0 45.0)
           (-45.0 45.0)
  end
:hierarchy
  begin
    root lhipjoint rhipjoint lowerback
    lhipjoint lfemur
    lfemur ltibia
    ltibia lfoot
    lfoot ltoes
    rhipjoint rfemur
    rfemur rtibia
    rtibia rfoot
    rfoot rtoes
    lowerback upperback
    upperback thorax
    thorax lowerneck lclavicle rclavicle
    lowerneck upperneck
    upperneck head
    lclavicle lhumerus
    lhumerus lradius
    lradius lwrist
    lwrist lhand lthumb
    lhand lfingers
    rclavicle rhumerus
    rhumerus rradius
    rradius rwrist
    rwrist rhand rthumb
    rhand rfingers
  end

#!OML:ASF H:\BreakDance\Project 1\Capture day 1\Session 1\Male.ASF
:FULLY-SPECIFIED
:DEGREES
588
root -13.5846 12.717 -2.4264 89.0716 12.4401 -14.3482
lowerback 24.0875 2.51167 -2.81348
upperback 7.65733 1.91267 -7.14838
thorax -4.77443 0.940798 -6.75669
lowerneck -8.28358 -2.76885 2.56623
upperneck -16.3397 -2.94021 9.36086
head -3.84478 -2.01686 2.74164
rclavicle 3.81667e-014 -6.36111e-015
rhumerus 50.2412 -8.80448 -64.0251
rradius 37.3002
rwrist 7.81152
rhand -32.9381 -35.6468
rfingers 7.12502
rthumb -6.15447 -785.537
lclavicle 3.81667e-014 -6.36111e-015
lhumerus 57.205 -1.51666 57.7736
lradius 56.3965
lwrist -23.8332
lhand -53.2142 -57.7012
lfingers 7.12502
lthumb -25.6709 -29.412
rfemur -36.0021 -15.6875 27.3164
rtibia 49.7034
rfoot -21.3034 -7.09343
rtoes 43.0714
lfemur -104.001 -2.37167 -20.2062
ltibia 76.2724
lfoot -42.2846 10.0252
ltoes -22.1776
589
root -13.6263 12.7744 -2.33893 90.1763 12.4756 -14.2357
lowerback 24.0524 2.58733 -2.95597
upperback 7.52454 1.95727 -7.27114
thorax -4.89847 0.959968 -6.82889
lowerneck -8.88195 -2.82993 2.28765
upperneck -16.0201 -3.07609 9.27475
head -3.61082 -2.03847 2.73228
rclavicle -8.34896e-015 7.25564e-015
rhumerus 49.8291 -10.6521 -64.7797
rradius 36.1626
rwrist 7.93667
rhand -33.3666 -35.7004
rfingers 7.12502
rthumb -6.56816 -785.578
lclavicle -8.34896e-015 7.25564e-015
lhumerus 57.3842 -1.18167 57.2214
lradius 57.0334
lwrist -24.5997
lhand -53.2231 -58.2053
lfingers 7.12502
lthumb -25.6795 -29.9174
rfemur -32.5543 -17.7581 27.5295
rtibia 48.0998
rfoot -20.6613 -7.3081
rtoes 43.031
lfemur -104.135 -2.16893 -19.7725
ltibia 74.802
lfoot -42.1695 9.88963
ltoes -22.0196
590
root -13.6651 12.8385 -2.24674 91.3722 12.4967 -14.1842
lowerback 24.0209 2.69155 -3.08399
upperback 7.34727 2.03453 -7.40319
thorax -5.06936 0.993184 -6.93182
lowerneck -9.48471 -2.91592 2.07604
upperneck -15.7409 -3.24562 9.17646
head -3.39326 -2.08419 2.70851
rclavicle -3.34952e-014 -5.11871e-015
rhumerus 49.5325 -12.4349 -65.3622
rradius 35.1469
rwrist 8.19967
rhand -33.9319 -35.4866
rfingers 7.12502
rthumb -7.11388 -785.347
lclavicle -3.34952e-014 -5.11871e-015
lhumerus 57.6985 -0.909853 56.4587
lradius 57.7747
lwrist -24.9498
lhand -53.3205 -58.2873
lfingers 7.12502
lthumb -25.7727 -30.0129
rfemur -29.2067 -19.6146 27.5214
rtibia 46.7898
rfoot -20.0048 -7.543
rtoes 42.8156
lfemur -104.232 -1.88558 -19.3542
ltibia 73.097
lfoot -42.163 9.4372
ltoes -21.1016
591
root -13.7012 12.9079 -2.1516 92.6583 12.5176 -14.2125
lowerback 23.9701 2.81283 -3.19289
upperback 7.13999 2.13409 -7.54506
thorax -5.26045 1.03595 -7.06409
lowerneck -10.0607 -2.97887 1.92217
upperneck -15.5649 -3.37521 9.0565
head -3.22272 -2.11744 2.67211
rclavicle -2.76808e-014 -1.41758e-014
rhumerus 49.3979 -14.1356 -65.8145
rradius 34.189
rwrist 8.77752
rhand -34.5393 -35.1065
rfingers 7.12502
rthumb -7.70015 -784.946
lclavicle -2.76808e-014 -1.41758e-014
lhumerus 58.1009 -0.616064 55.5277
lradius 58.6092
lwrist -24.8575
lhand -53.5332 -57.938
lfingers 7.12502
lthumb -25.9765 -29.6932
rfemur -25.9558 -21.1997 27.3186
rtibia 45.7639
rfoot -19.3599 -7.68078
rtoes 42.7208
lfemur -104.299 -1.55983 -18.8196
ltibia 71.1731
lfoot -42.2404 8.79376
ltoes -19.462
592
root -13.7357 12.981 -2.0559 94.0266 12.5557 -14.3298
lowerback 23.8737 2.95322 -3.30249
upperback 6.92899 2.26039 -7.67281
thorax -5.43075 1.0909 -7.18513
lowerneck -10.6509 -3.02127 1.78697
upperneck -15.4338 -3.47281 8.92185
head -3.06933 -2.13696 2.62926
rclavicle -1.02473e-013 2.18663e-014
rhumerus 49.4859 -15.7407 -66.1177
rradius 33.2135
rwrist 9.76603
rhand -35.1192 -34.6384
rfingers 7.12502
rthumb -8.25982 -784.457
lclavicle -1.02473e-013 2.18663e-014
lhumerus 58.556 -0.251771 54.676
lradius 59.4676
lwrist -24.5158
lhand -53.9347 -57.3721
lfingers 7.12502
lthumb -26.3608 -29.1844
rfemur -22.8094 -22.4905 26.9592
rtibia 45.0221
rfoot -18.7201 -7.69579
rtoes 42.6784
lfemur -104.344 -1.19685 -18.2098
ltibia 69.0271
lfoot -42.2353 8.6449
ltoes -18.5943
593
root -13.7681 13.0581 -1.95924 95.4621 12.6261 -14.5064
lowerback 23.7457 3.09879 -3.413
upperback 6.73866 2.39926 -7.76516
thorax -5.56261 1.15189 -7.2659
lowerneck -11.2766 -3.04645 1.61462
upperneck -15.3292 -3.53742 8.80694
head -2.92139 -2.13873 2.60061
rclavicle 7.35503e-015 -1.8487e-014
rhumerus 49.8103 -17.2046 -66.1879
rradius 32.2032
rwrist 11.0677
rhand -35.6753 -34.1285
rfingers 7.12502
rthumb -8.7965 -783.925
lclavicle 7.35503e-015 -1.8487e-014
lhumerus 59.048 0.231554 54.1343
lradius 60.2577
lwrist -24.166
lhand -54.4232 -56.783
lfingers 7.12502
lthumb -26.8284 -28.6661
rfemur -19.7572 -23.5194 26.4758
rtibia 44.5367
rfoot -18.0388 -7.57618
rtoes 42.6481
lfemur -104.342 -0.867281 -17.3539
ltibia 66.6692
lfoot -42.1703 8.91728
ltoes -17.9581
594
root -13.7984 13.1397 -1.86119 96.9673 12.7382 -14.7318
lowerback 23.5931 3.24946 -3.52022
upperback 6.56312 2.55143 -7.81616
thorax -5.66634 1.21911 -7.3026
lowerneck -11.8935 -3.04225 1.40465
upperneck -15.2922 -3.54662 8.70285
head -2.80159 -2.11289 2.58628
rclavicle -2.5842e-015 4.57205e-015
rhumerus 50.2987 -18.4867 -65.9261
rradius 31.2113
rwrist 12.4285
rhand -36.2198 -33.6652
rfingers 7.12502
rthumb -9.32187 -783.439
lclavicle -2.5842e-015 4.57205e-015
lhumerus 59.5523 0.841753 53.9759
lradius 60.9479
lwrist -23.9457
lhand -54.5469 -57.0337
lfingers 7.12502
lthumb -26.9467 -28.9351
rfemur -16.8168 -24.3003 25.9066
rtibia 44.2791
rfoot -17.2809 -7.35014
rtoes 42.6043
lfemur -104.281 -0.594728 -16.1588
ltibia 64.0989
lfoot -42.0161 9.70372
ltoes -17.6366
595
root -13.8268 13.2259 -1.76121 98.5532 12.8807 -14.9709
lowerback 23.4418 3.38415 -3.5868
upperback 6.39815 2.69388 -7.86025
thorax -5.75856 1.28166 -7.35167
lowerneck -12.4972 -3.01532 1.21714
upperneck -15.3115 -3.51648 8.61069
head -2.70695 -2.0708 2.57573
rclavicle -8.15017e-014 2.38542e-014
rhumerus 50.8878 -19.5937 -65.3403
rradius 30.3143
rwrist 13.5693
rhand -36.7881 -33.3223
rfingers 7.12502
rthumb -9.87019 -783.071
lclavicle -8.15017e-014 2.38542e-014
lhumerus 60.0955 1.56617 54.0732
lradius 61.5663
lwrist -23.8571
lhand -54.4522 -57.4898
lfingers 7.12502
lthumb -26.8561 -29.3772
rfemur -14.0031 -24.8655 25.2735
rtibia 44.1995
rfoot -16.4508 -7.05942
rtoes 42.6016
lfemur -104.159 -0.383128 -14.6015
ltibia 61.3106
lfoot -41.7742 10.8779
ltoes -17.3463
596
root -13.8533 13.3165 -1.65818 100.233 13.0315 -15.1921
lowerback 23.2957 3.5262 -3.63257
upperback 6.22899 2.84981 -7.89567
thorax -5.856 1.35013 -7.40723
lowerneck -13.0375 -2.98075 1.12679
upperneck -15.4032 -3.48028 8.48293
head -2.65159 -2.03482 2.54053
rclavicle -6.08281e-014 -8.82604e-014
rhumerus 51.4743 -20.5785 -64.377
rradius 29.5753
rwrist 14.2383
rhand -37.4475 -33.1386
rfingers 7.12502
rthumb -10.5064 -782.856
lclavicle -6.08281e-014 -8.82604e-014
lhumerus 60.6947 2.30668 54.3374
lradius 62.183
lwrist -23.8664
lhand -54.1099 -58.3599
lfingers 7.12502
lthumb -26.5285 -30.1973
rfemur -11.3306 -25.2645 24.5875
rtibia 44.2439
rfoot -15.5568 -6.7295
rtoes 42.6634
lfemur -103.972 -0.225195 -12.6963
ltibia 58.3039
lfoot -41.4274 12.3666
ltoes -16.9825
